<svg xmlns="http://www.w3.org/2000/svg" xmlns:xlink="http://www.w3.org/1999/xlink" xmlns:lucid="lucid" width="206" height="167"><g transform="translate(-434 -266)" lucid:page-tab-id="0_0"><path d="M520 320h100v100H520z" fill="#fff0c5"/><path d="M538.75 320h12.5m12.5 0h12.5m12.5 0h12.5m12.5 0H620v6.25m0 12.5v12.5m0 12.5v12.5m0 12.5v12.5m0 12.5V420h-6.25m-12.5 0h-12.5m-12.5 0h-12.5m-12.5 0h-12.5m-12.5 0H520v-6.25m0-12.5v-12.5m0-12.5v-12.5m0-12.5v-12.5m0-12.5V320h6.25" stroke="#5e5e5e" stroke-width="3" fill="none"/><path d="M440 346c0-3.3 2.7-6 6-6h48c3.3 0 6 2.7 6 6v48c0 3.3-2.7 6-6 6h-48c-3.3 0-6-2.7-6-6z" stroke="#000" stroke-opacity="0" stroke-width="3" fill="#fff" fill-opacity="0"/><use xlink:href="#a" transform="matrix(1,0,0,1,445,345) translate(2.996419270833343 32.050781249999986)"/><path d="M540 266c0-3.3 2.7-6 6-6h48c3.3 0 6 2.7 6 6v48c0 3.3-2.7 6-6 6h-48c-3.3 0-6-2.7-6-6z" stroke="#000" stroke-opacity="0" stroke-width="3" fill="#fff" fill-opacity="0"/><use xlink:href="#b" transform="matrix(1,0,0,1,545,265) translate(-19.007161458333314 32.32855902777777)"/><defs><path fill="#333" d="M1157-949c0 209-118 316-279 368L1227 0H895L605-515H432V0H137v-1349h494c317-2 526 111 526 400zM608-744c158 1 248-51 252-193 5-207-223-184-428-183v376h176" id="c"/><path fill="#333" d="M616-1102c361 0 521 202 521 560 0 354-171 562-527 562C259 20 92-192 92-542c0-351 169-560 524-560zm-9 930c200-2 236-165 236-370 0-199-27-367-223-367-195 0-233 146-233 367 0 129 18 223 55 282s92 88 165 88" id="d"/><path fill="#333" d="M1028 0H784c-56-191-119-378-170-573C562-377 495-191 437 0H194L11-1082h228c32 239 67 472 95 714 4 40 7 80 7 119 53-195 119-378 177-568h193c56 190 120 371 169 568-1-79 11-158 21-226l91-607h226" id="e"/><g id="a"><use transform="matrix(0.011935763888888883,0,0,0.011935763888888883,0,0)" xlink:href="#c"/><use transform="matrix(0.011935763888888883,0,0,0.011935763888888883,14.669053819444438,0)" xlink:href="#d"/><use transform="matrix(0.011935763888888883,0,0,0.011935763888888883,29.338107638888875,0)" xlink:href="#e"/></g><path fill="#333" d="M872-915c-35-112-84-223-220-223-91 0-156 41-204 116-89 137-87 550 2 688 51 79 116 122 209 122 150 0 197-126 240-244l273 52C1094-168 961 20 656 20 239 20 80-262 80-681c0-418 154-689 568-689 289 0 425 167 496 389" id="f"/><path fill="#333" d="M794-190h353V0H118v-190h395v-1104H223v-190h571v1294" id="g"/><path fill="#333" d="M471 20c-247 0-336-169-336-415v-687h281v607c4 148 31 285 172 285 152 0 207-150 207-312v-580h281c4 359-9 736 8 1082H816c-7-63-11-146-12-215h-5C736-76 644 20 471 20" id="h"/><path fill="#333" d="M934-1102c199 0 220 177 220 381V0H926c-2-260 10-533-4-785-4-72-14-138-83-138-34 0-61 27-81 81s-29 134-29 241V0H501c-2-260 9-533-5-785-4-72-13-138-82-138-46 0-65 47-80 93-21 67-30 155-30 248V0H75c-3-360 6-732-6-1082h209c6 50 3 123 8 175 36-100 83-195 216-195 135 0 166 79 196 196 42-105 93-196 236-196" id="i"/><path fill="#333" d="M768-1103c247 0 336 167 336 416V0H824v-619c-3-164-24-273-171-273-164 0-229 142-229 312V0H143c-4-359 9-736-8-1082h268c7 63 12 146 13 215h4c67-145 160-236 348-236" id="j"/><g id="b"><use transform="matrix(0.011935763888888883,0,0,0.011935763888888883,0,0)" xlink:href="#f"/><use transform="matrix(0.011935763888888883,0,0,0.011935763888888883,14.669053819444438,0)" xlink:href="#d"/><use transform="matrix(0.011935763888888883,0,0,0.011935763888888883,29.338107638888875,0)" xlink:href="#g"/><use transform="matrix(0.011935763888888883,0,0,0.011935763888888883,44.007161458333314,0)" xlink:href="#h"/><use transform="matrix(0.011935763888888883,0,0,0.011935763888888883,58.67621527777775,0)" xlink:href="#i"/><use transform="matrix(0.011935763888888883,0,0,0.011935763888888883,73.34526909722219,0)" xlink:href="#j"/></g></defs></g></svg>