<?xml version="1.0" encoding="UTF-8" standalone="no"?>
<!DOCTYPE svg PUBLIC "-//W3C//DTD SVG 1.1//EN"
 "http://www.w3.org/Graphics/SVG/1.1/DTD/svg11.dtd">
<!-- Generated by graphviz version 2.40.1 (20161225.0304)
 -->
<!-- Title: G Pages: 1 -->
<svg width="32pt" height="58pt"
 viewBox="0.00 0.00 32.00 58.00" xmlns="http://www.w3.org/2000/svg" xmlns:xlink="http://www.w3.org/1999/xlink">
<g id="graph0" class="graph" transform="scale(1 1) rotate(0) translate(4 54)">
<title>G</title>
<polygon fill="#ffffff" stroke="transparent" points="-4,4 -4,-54 28,-54 28,4 -4,4"/>
<!-- node4726263032 -->
<g id="node1" class="node">
<title>node4726263032</title>
<polygon fill="none" stroke="#000000" stroke-width=".5" points="24,-50 0,-50 0,0 24,0 24,-50"/>
<polygon fill="#fefecd" stroke="transparent" points="1,-33 1,-49 12,-49 12,-33 1,-33"/>
<text text-anchor="start" x="3.7192" y="-38" font-family="Helvetica,sans-Serif" font-size="10.00" fill="#444443">1</text>
<polygon fill="#fefecd" stroke="transparent" points="12,-33 12,-49 23,-49 23,-33 12,-33"/>
<text text-anchor="start" x="14.7192" y="-38" font-family="Helvetica,sans-Serif" font-size="10.00" fill="#444443">4</text>
<polygon fill="#fefecd" stroke="transparent" points="1,-17 1,-33 12,-33 12,-17 1,-17"/>
<text text-anchor="start" x="3.7192" y="-22" font-family="Helvetica,sans-Serif" font-size="10.00" fill="#444443">2</text>
<polygon fill="#fefecd" stroke="transparent" points="12,-17 12,-33 23,-33 23,-17 12,-17"/>
<text text-anchor="start" x="14.7192" y="-22" font-family="Helvetica,sans-Serif" font-size="10.00" fill="#444443">5</text>
<polygon fill="#fefecd" stroke="transparent" points="1,-1 1,-17 12,-17 12,-1 1,-1"/>
<text text-anchor="start" x="3.7192" y="-6" font-family="Helvetica,sans-Serif" font-size="10.00" fill="#444443">3</text>
<polygon fill="#fefecd" stroke="transparent" points="12,-1 12,-17 23,-17 23,-1 12,-1"/>
<text text-anchor="start" x="14.7192" y="-6" font-family="Helvetica,sans-Serif" font-size="10.00" fill="#444443">6</text>
</g>
</g>
</svg>
