<?xml version="1.0" encoding="UTF-8" standalone="no"?>
<!DOCTYPE svg PUBLIC "-//W3C//DTD SVG 1.1//EN"
 "http://www.w3.org/Graphics/SVG/1.1/DTD/svg11.dtd">
<!-- Generated by graphviz version 2.40.1 (20161225.0304)
 -->
<!-- Title: G Pages: 1 -->
<svg width="106pt" height="38pt"
 viewBox="0.00 0.00 106.00 38.00" xmlns="http://www.w3.org/2000/svg" xmlns:xlink="http://www.w3.org/1999/xlink">
<g id="graph0" class="graph" transform="scale(1 1) rotate(0) translate(4 34)">
<title>G</title>
<polygon fill="#ffffff" stroke="transparent" points="-4,4 -4,-34 102,-34 102,4 -4,4"/>
<!-- node4578511752 -->
<g id="node1" class="node">
<title>node4578511752</title>
<polygon fill="#fefecd" stroke="#444443" stroke-width=".5" points="40,-24.5 0,-24.5 0,-7.5 40,-7.5 40,-24.5"/>
<polygon fill="#fefecd" stroke="transparent" points="2,-9 2,-22 15,-22 15,-9 2,-9"/>
<text text-anchor="start" x="1.813" y="-12.2" font-family="Helvetica,sans-Serif" font-size="11.00" fill="#444443">&#39;a&#39; </text>
<text text-anchor="start" x="15" y="-12.3996" font-family="Helvetica,sans-Serif" font-size="9.00" fill="#444443">→</text>
<polygon fill="#fefecd" stroke="transparent" points="24,-9 24,-22 38,-22 38,-9 24,-9"/>
<text text-anchor="start" x="24.8877" y="-12.2" font-family="Helvetica,sans-Serif" font-size="11.00" fill="#444443"> &#160;&#160;&#160;</text>
</g>
<!-- node4761102280 -->
<g id="node2" class="node">
<title>node4761102280</title>
<polygon fill="none" stroke="#000000" stroke-width=".5" points="98,-30 62,-30 62,0 98,0 98,-30"/>
<polygon fill="#fefecd" stroke="transparent" points="63,-18 63,-29 75,-29 75,-18 63,-18"/>
<polyline fill="none" stroke="#000000" points="63,-18 75,-18 75,-29 "/>
<text text-anchor="start" x="66.4973" y="-20.8" font-family="Helvetica,sans-Serif" font-size="9.00" fill="#444443">0</text>
<polygon fill="#fefecd" stroke="transparent" points="75,-18 75,-29 87,-29 87,-18 75,-18"/>
<polyline fill="none" stroke="#000000" points="75,-18 87,-18 87,-29 "/>
<text text-anchor="start" x="78.4973" y="-20.8" font-family="Helvetica,sans-Serif" font-size="9.00" fill="#444443">1</text>
<polygon fill="#fefecd" stroke="transparent" points="87,-18 87,-29 97,-29 97,-18 87,-18"/>
<polyline fill="none" stroke="#000000" points="87,-18 97,-18 "/>
<text text-anchor="start" x="89.4973" y="-20.8" font-family="Helvetica,sans-Serif" font-size="9.00" fill="#444443">2</text>
<polygon fill="#fefecd" stroke="transparent" points="63,-1 63,-18 75,-18 75,-1 63,-1"/>
<polyline fill="none" stroke="#000000" points="75,-1 75,-18 "/>
<text text-anchor="start" x="65.9412" y="-6.2" font-family="Helvetica,sans-Serif" font-size="11.00" fill="#444443">1</text>
<polygon fill="#fefecd" stroke="transparent" points="75,-1 75,-18 87,-18 87,-1 75,-1"/>
<polyline fill="none" stroke="#000000" points="87,-1 87,-18 "/>
<text text-anchor="start" x="77.9412" y="-6.2" font-family="Helvetica,sans-Serif" font-size="11.00" fill="#444443">2</text>
<polygon fill="#fefecd" stroke="transparent" points="87,-1 87,-18 97,-18 97,-1 87,-1"/>
<text text-anchor="start" x="88.9412" y="-6.2" font-family="Helvetica,sans-Serif" font-size="11.00" fill="#444443">3</text>
</g>
<!-- node4578511752&#45;&gt;node4761102280 -->
<g id="edge1" class="edge">
<title>node4578511752:c&#45;&gt;node4761102280</title>
<path fill="none" stroke="#444443" stroke-width=".5" d="M34.5535,-15C39.4353,-15 48.6199,-15 57.4616,-15"/>
<ellipse fill="#444443" stroke="#444443" stroke-width=".5" cx="32.6" cy="-15" rx="1.6" ry="1.6"/>
<polygon fill="#444443" stroke="#444443" stroke-width=".5" points="57.7542,-16.4001 61.7542,-15 57.7542,-13.6001 57.7542,-16.4001"/>
</g>
</g>
</svg>
