<?xml version="1.0" encoding="UTF-8" standalone="no"?>
<!DOCTYPE svg PUBLIC "-//W3C//DTD SVG 1.1//EN"
 "http://www.w3.org/Graphics/SVG/1.1/DTD/svg11.dtd">
<!-- Generated by graphviz version 2.40.1 (20161225.0304)
 -->
<!-- Title: G Pages: 1 -->
<svg width="44pt" height="38pt"
 viewBox="0.00 0.00 44.00 38.00" xmlns="http://www.w3.org/2000/svg" xmlns:xlink="http://www.w3.org/1999/xlink">
<g id="graph0" class="graph" transform="scale(1 1) rotate(0) translate(4 34)">
<title>G</title>
<polygon fill="#ffffff" stroke="transparent" points="-4,4 -4,-34 40,-34 40,4 -4,4"/>
<!-- node4726322568 -->
<g id="node1" class="node">
<title>node4726322568</title>
<polygon fill="none" stroke="#000000" stroke-width=".5" points="36,-30 0,-30 0,0 36,0 36,-30"/>
<polygon fill="#fefecd" stroke="transparent" points="1,-18 1,-29 13,-29 13,-18 1,-18"/>
<polyline fill="none" stroke="#000000" points="1,-18 13,-18 13,-29 "/>
<text text-anchor="start" x="4.4973" y="-20.8" font-family="Helvetica,sans-Serif" font-size="9.00" fill="#444443">0</text>
<polygon fill="#fefecd" stroke="transparent" points="13,-18 13,-29 25,-29 25,-18 13,-18"/>
<polyline fill="none" stroke="#000000" points="13,-18 25,-18 25,-29 "/>
<text text-anchor="start" x="16.4973" y="-20.8" font-family="Helvetica,sans-Serif" font-size="9.00" fill="#444443">1</text>
<polygon fill="#fefecd" stroke="transparent" points="25,-18 25,-29 35,-29 35,-18 25,-18"/>
<polyline fill="none" stroke="#000000" points="25,-18 35,-18 "/>
<text text-anchor="start" x="27.4973" y="-20.8" font-family="Helvetica,sans-Serif" font-size="9.00" fill="#444443">2</text>
<polygon fill="#fefecd" stroke="transparent" points="1,-1 1,-18 13,-18 13,-1 1,-1"/>
<polyline fill="none" stroke="#000000" points="13,-1 13,-18 "/>
<text text-anchor="start" x="3.9412" y="-6.2" font-family="Helvetica,sans-Serif" font-size="11.00" fill="#444443">1</text>
<polygon fill="#fefecd" stroke="transparent" points="13,-1 13,-18 25,-18 25,-1 13,-1"/>
<polyline fill="none" stroke="#000000" points="25,-1 25,-18 "/>
<text text-anchor="start" x="15.9412" y="-6.2" font-family="Helvetica,sans-Serif" font-size="11.00" fill="#444443">2</text>
<polygon fill="#fefecd" stroke="transparent" points="25,-1 25,-18 35,-18 35,-1 25,-1"/>
<text text-anchor="start" x="26.9412" y="-6.2" font-family="Helvetica,sans-Serif" font-size="11.00" fill="#444443">3</text>
</g>
</g>
</svg>
