<?xml version="1.0" encoding="UTF-8" standalone="no"?>
<!DOCTYPE svg PUBLIC "-//W3C//DTD SVG 1.1//EN"
 "http://www.w3.org/Graphics/SVG/1.1/DTD/svg11.dtd">
<!-- Generated by graphviz version 2.40.1 (20161225.0304)
 -->
<!-- Title: G Pages: 1 -->
<svg width="79pt" height="100pt"
 viewBox="0.00 0.00 79.00 100.00" xmlns="http://www.w3.org/2000/svg" xmlns:xlink="http://www.w3.org/1999/xlink">
<g id="graph0" class="graph" transform="scale(1 1) rotate(0) translate(4 96)">
<title>G</title>
<polygon fill="#ffffff" stroke="transparent" points="-4,4 -4,-96 75,-96 75,4 -4,4"/>
<!-- node4761102152 -->
<g id="node1" class="node">
<title>node4761102152</title>
<polygon fill="#cfe2d4" stroke="#444443" stroke-width=".5" points="13,-92 0,-92 0,0 13,0 13,-92"/>
<polygon fill="#cfe2d4" stroke="transparent" points="1.5,-76 1.5,-91 12.5,-91 12.5,-76 1.5,-76"/>
<polyline fill="none" stroke="#444443" points="1.5,-76 12.5,-76 "/>
<text text-anchor="start" x="4.4973" y="-80.8" font-family="Helvetica,sans-Serif" font-size="9.00" fill="#444443">0</text>
<polygon fill="#cfe2d4" stroke="transparent" points="1.5,-61 1.5,-76 12.5,-76 12.5,-61 1.5,-61"/>
<polyline fill="none" stroke="#444443" points="1.5,-61 12.5,-61 "/>
<text text-anchor="start" x="4.4973" y="-65.8" font-family="Helvetica,sans-Serif" font-size="9.00" fill="#444443">1</text>
<polygon fill="#cfe2d4" stroke="transparent" points="1.5,-46 1.5,-61 12.5,-61 12.5,-46 1.5,-46"/>
<polyline fill="none" stroke="#444443" points="1.5,-46 12.5,-46 "/>
<text text-anchor="start" x="4.4973" y="-50.8" font-family="Helvetica,sans-Serif" font-size="9.00" fill="#444443">2</text>
<polygon fill="#cfe2d4" stroke="transparent" points="1.5,-31 1.5,-46 12.5,-46 12.5,-31 1.5,-31"/>
<polyline fill="none" stroke="#444443" points="1.5,-31 12.5,-31 "/>
<text text-anchor="start" x="4.4973" y="-35.8" font-family="Helvetica,sans-Serif" font-size="9.00" fill="#444443">3</text>
<polygon fill="#cfe2d4" stroke="transparent" points="1.5,-16 1.5,-31 12.5,-31 12.5,-16 1.5,-16"/>
<polyline fill="none" stroke="#444443" points="1.5,-16 12.5,-16 "/>
<text text-anchor="start" x="4.4973" y="-20.8" font-family="Helvetica,sans-Serif" font-size="9.00" fill="#444443">4</text>
<polygon fill="#cfe2d4" stroke="transparent" points="1.5,-1 1.5,-16 12.5,-16 12.5,-1 1.5,-1"/>
<text text-anchor="start" x="4.4973" y="-5.8" font-family="Helvetica,sans-Serif" font-size="9.00" fill="#444443">5</text>
</g>
<!-- node4726322632 -->
<g id="node2" class="node">
<title>node4726322632</title>
<polygon fill="none" stroke="#000000" stroke-width=".5" points="71,-80 35,-80 35,-50 71,-50 71,-80"/>
<polygon fill="#fefecd" stroke="transparent" points="36,-68 36,-79 48,-79 48,-68 36,-68"/>
<polyline fill="none" stroke="#000000" points="36,-68 48,-68 48,-79 "/>
<text text-anchor="start" x="39.4973" y="-70.8" font-family="Helvetica,sans-Serif" font-size="9.00" fill="#444443">0</text>
<polygon fill="#fefecd" stroke="transparent" points="48,-68 48,-79 60,-79 60,-68 48,-68"/>
<polyline fill="none" stroke="#000000" points="48,-68 60,-68 60,-79 "/>
<text text-anchor="start" x="51.4973" y="-70.8" font-family="Helvetica,sans-Serif" font-size="9.00" fill="#444443">1</text>
<polygon fill="#fefecd" stroke="transparent" points="60,-68 60,-79 70,-79 70,-68 60,-68"/>
<polyline fill="none" stroke="#000000" points="60,-68 70,-68 "/>
<text text-anchor="start" x="62.4973" y="-70.8" font-family="Helvetica,sans-Serif" font-size="9.00" fill="#444443">2</text>
<polygon fill="#fefecd" stroke="transparent" points="36,-51 36,-68 48,-68 48,-51 36,-51"/>
<polyline fill="none" stroke="#000000" points="48,-51 48,-68 "/>
<text text-anchor="start" x="38.9412" y="-56.2" font-family="Helvetica,sans-Serif" font-size="11.00" fill="#444443">1</text>
<polygon fill="#fefecd" stroke="transparent" points="48,-51 48,-68 60,-68 60,-51 48,-51"/>
<polyline fill="none" stroke="#000000" points="60,-51 60,-68 "/>
<text text-anchor="start" x="50.9412" y="-56.2" font-family="Helvetica,sans-Serif" font-size="11.00" fill="#444443">2</text>
<polygon fill="#fefecd" stroke="transparent" points="60,-51 60,-68 70,-68 70,-51 60,-51"/>
<text text-anchor="start" x="61.9412" y="-56.2" font-family="Helvetica,sans-Serif" font-size="11.00" fill="#444443">3</text>
</g>
<!-- node4761102152&#45;&gt;node4726322632 -->
<g id="edge1" class="edge">
<title>node4761102152:0&#45;&gt;node4726322632:w</title>
<path fill="none" stroke="#444443" stroke-width=".5" d="M12.5,-84C23.9524,-84 22.5688,-69.4531 30.8122,-65.8164"/>
<polygon fill="#444443" stroke="#444443" stroke-width=".5" points="31.3418,-67.1396 35,-65 30.806,-64.3913 31.3418,-67.1396"/>
</g>
<!-- node4761102152&#45;&gt;node4726322632 -->
<g id="edge3" class="edge">
<title>node4761102152:2&#45;&gt;node4726322632:w</title>
<path fill="none" stroke="#444443" stroke-width=".5" d="M12.5,-54C22.0658,-54 23.5866,-62.1238 30.8897,-64.4086"/>
<polygon fill="#444443" stroke="#444443" stroke-width=".5" points="30.8414,-65.816 35,-65 31.2402,-63.0445 30.8414,-65.816"/>
</g>
<!-- node4761102152&#45;&gt;node4726322632 -->
<g id="edge5" class="edge">
<title>node4761102152:4&#45;&gt;node4726322632:w</title>
<path fill="none" stroke="#444443" stroke-width=".5" d="M12.5,-23C32.0221,-23 16.6751,-58.6938 30.7489,-64.271"/>
<polygon fill="#444443" stroke="#444443" stroke-width=".5" points="30.8209,-65.7037 35,-65 31.2942,-62.944 30.8209,-65.7037"/>
</g>
<!-- node4726322568 -->
<g id="node3" class="node">
<title>node4726322568</title>
<polygon fill="none" stroke="#000000" stroke-width=".5" points="71,-43 35,-43 35,-13 71,-13 71,-43"/>
<polygon fill="#fefecd" stroke="transparent" points="36,-31 36,-42 48,-42 48,-31 36,-31"/>
<polyline fill="none" stroke="#000000" points="36,-31 48,-31 48,-42 "/>
<text text-anchor="start" x="39.4973" y="-33.8" font-family="Helvetica,sans-Serif" font-size="9.00" fill="#444443">0</text>
<polygon fill="#fefecd" stroke="transparent" points="48,-31 48,-42 60,-42 60,-31 48,-31"/>
<polyline fill="none" stroke="#000000" points="48,-31 60,-31 60,-42 "/>
<text text-anchor="start" x="51.4973" y="-33.8" font-family="Helvetica,sans-Serif" font-size="9.00" fill="#444443">1</text>
<polygon fill="#fefecd" stroke="transparent" points="60,-31 60,-42 70,-42 70,-31 60,-31"/>
<polyline fill="none" stroke="#000000" points="60,-31 70,-31 "/>
<text text-anchor="start" x="62.4973" y="-33.8" font-family="Helvetica,sans-Serif" font-size="9.00" fill="#444443">2</text>
<polygon fill="#fefecd" stroke="transparent" points="36,-14 36,-31 48,-31 48,-14 36,-14"/>
<polyline fill="none" stroke="#000000" points="48,-14 48,-31 "/>
<text text-anchor="start" x="38.9412" y="-19.2" font-family="Helvetica,sans-Serif" font-size="11.00" fill="#444443">4</text>
<polygon fill="#fefecd" stroke="transparent" points="48,-14 48,-31 60,-31 60,-14 48,-14"/>
<polyline fill="none" stroke="#000000" points="60,-14 60,-31 "/>
<text text-anchor="start" x="50.9412" y="-19.2" font-family="Helvetica,sans-Serif" font-size="11.00" fill="#444443">5</text>
<polygon fill="#fefecd" stroke="transparent" points="60,-14 60,-31 70,-31 70,-14 60,-14"/>
<text text-anchor="start" x="61.9412" y="-19.2" font-family="Helvetica,sans-Serif" font-size="11.00" fill="#444443">6</text>
</g>
<!-- node4761102152&#45;&gt;node4726322568 -->
<g id="edge2" class="edge">
<title>node4761102152:1&#45;&gt;node4726322568:w</title>
<path fill="none" stroke="#444443" stroke-width=".5" d="M12.5,-69C31.6619,-69 16.9509,-34.156 30.8201,-28.7116"/>
<polygon fill="#444443" stroke="#444443" stroke-width=".5" points="31.2917,-30.0516 35,-28 30.8217,-27.2913 31.2917,-30.0516"/>
</g>
<!-- node4761102152&#45;&gt;node4726322568 -->
<g id="edge4" class="edge">
<title>node4761102152:3&#45;&gt;node4726322568:w</title>
<path fill="none" stroke="#444443" stroke-width=".5" d="M12.5,-38C21.9043,-38 23.68,-30.6147 30.9387,-28.5376"/>
<polygon fill="#444443" stroke="#444443" stroke-width=".5" points="31.2184,-29.9129 35,-28 30.8508,-27.1371 31.2184,-29.9129"/>
</g>
<!-- node4761102152&#45;&gt;node4726322568 -->
<g id="edge6" class="edge">
<title>node4761102152:5&#45;&gt;node4726322568:w</title>
<path fill="none" stroke="#444443" stroke-width=".5" d="M12.5,-8C24.2071,-8 22.4096,-23.3125 30.7406,-27.1406"/>
<polygon fill="#444443" stroke="#444443" stroke-width=".5" points="30.8021,-28.5812 35,-28 31.3559,-25.8365 30.8021,-28.5812"/>
</g>
</g>
</svg>
